<?xml version="1.0" standalone="no"?>
<!DOCTYPE svg PUBLIC "-//W3C//DTD SVG 20010904//EN"
 "http://www.w3.org/TR/2001/REC-SVG-20010904/DTD/svg10.dtd">
<svg version="1.0" xmlns="http://www.w3.org/2000/svg"
 width="1600.000000pt" height="366.000000pt" viewBox="0 0 1600.000000 366.000000"
 preserveAspectRatio="xMidYMid meet">

<g transform="translate(0.000000,366.000000) scale(0.100000,-0.100000)"
fill="#000000" stroke="none">
<path d="M2142 3080 c-491 -62 -892 -388 -1047 -852 -191 -574 48 -1194 577
-1495 284 -162 624 -204 950 -117 122 32 311 126 419 208 256 194 431 480 484
790 19 113 19 319 0 429 -45 260 -164 486 -355 677 -181 181 -390 293 -645
345 -98 20 -284 27 -383 15z m268 -170 c449 -58 811 -373 927 -805 24 -91 27
-117 27 -275 0 -159 -3 -184 -27 -275 -100 -372 -386 -664 -755 -770 -253 -74
-520 -50 -767 69 -126 61 -189 106 -294 208 -518 511 -390 1382 254 1724 200
107 426 151 635 124z"/>
<path d="M1902 2498 c-7 -7 -12 -31 -12 -54 0 -38 -7 -50 -76 -130 -131 -152
-304 -396 -304 -429 0 -10 -15 -15 -51 -17 -59 -3 -82 -25 -63 -55 10 -16 37
-19 250 -23 l239 -5 3 -192 c2 -190 3 -193 26 -208 27 -18 69 -7 80 20 3 9 6
100 6 201 l0 184 285 0 285 0 0 -187 c0 -104 4 -193 8 -199 4 -6 17 -16 30
-23 19 -10 28 -10 47 3 24 16 25 18 27 209 l3 192 245 5 245 5 3 29 c4 36 -10
46 -70 46 -37 0 -48 4 -48 16 0 41 -195 310 -337 466 -37 40 -43 53 -43 91 0
50 -13 67 -50 67 -39 0 -60 -29 -60 -83 0 -44 -3 -48 -57 -93 -155 -126 -301
-127 -450 -2 -61 50 -63 54 -63 99 0 30 -6 53 -16 63 -18 19 -65 21 -82 4z
m280 -313 c110 -32 215 -13 323 59 l65 44 0 -209 0 -210 -47 3 -48 3 -3 98
c-2 77 -6 97 -17 97 -12 0 -15 -19 -15 -100 l0 -100 -70 0 -70 0 0 100 c0 82
-3 100 -15 100 -12 0 -15 -18 -15 -100 l0 -100 -70 0 -70 0 0 100 c0 82 -3
100 -15 100 -12 0 -15 -18 -15 -100 l0 -100 -50 0 -50 0 0 210 0 210 65 -45
c36 -24 88 -51 117 -60z m657 -80 c68 -90 151 -216 151 -229 0 -4 -69 -5 -152
-4 l-153 3 -2 210 -2 210 45 -50 c25 -27 76 -90 113 -140z m-951 -27 l-3 -203
-154 -3 c-133 -2 -153 -1 -148 13 22 56 277 395 298 395 6 0 8 -79 7 -202z"/>
<path d="M7582 2739 c-214 -27 -337 -204 -304 -437 26 -183 117 -279 287 -303
79 -11 193 -2 278 22 l37 10 0 179 0 180 -125 0 -125 0 0 -40 0 -40 80 0 80 0
0 -109 c0 -126 6 -120 -110 -128 -108 -8 -181 15 -237 73 -58 59 -77 126 -71
249 3 82 7 99 34 141 66 108 180 150 319 120 39 -8 79 -18 91 -21 15 -5 23 0
32 20 21 45 15 52 -50 68 -84 21 -141 25 -216 16z"/>
<path d="M9215 2739 c-206 -27 -327 -219 -286 -455 24 -136 89 -226 189 -265
68 -26 199 -30 280 -10 52 13 52 13 52 53 0 34 -3 39 -17 33 -10 -3 -52 -11
-94 -18 -102 -14 -171 0 -228 50 -64 54 -83 101 -89 215 -9 187 57 292 201
318 53 10 146 -1 200 -25 13 -6 20 1 33 30 8 20 14 38 12 40 -2 1 -25 9 -53
18 -61 19 -134 25 -200 16z"/>
<path d="M13560 2739 c-74 -13 -132 -42 -175 -91 -74 -82 -106 -210 -87 -348
28 -198 140 -302 326 -302 87 -1 137 12 199 52 90 57 139 170 139 320 0 101
-19 175 -61 243 -63 99 -200 149 -341 126z m188 -98 c45 -23 62 -42 93 -101
21 -40 24 -59 24 -165 0 -167 -31 -236 -129 -281 -135 -63 -290 2 -330 137
-20 66 -21 210 -2 273 25 83 79 136 161 157 45 12 141 2 183 -20z"/>
<path d="M4220 2369 l0 -371 168 4 c154 3 171 6 223 30 31 14 66 39 78 56 43
60 46 167 7 227 -17 26 -84 65 -111 65 -8 0 -15 5 -15 10 0 6 9 10 19 10 27 0
81 48 97 87 20 46 17 112 -5 153 -38 71 -138 98 -368 99 l-93 1 0 -371z m295
280 c63 -16 90 -49 90 -109 0 -88 -58 -120 -214 -120 l-81 0 0 120 0 120 81 0
c44 0 100 -5 124 -11z m3 -309 c90 -20 130 -89 101 -175 -22 -63 -75 -85 -206
-85 l-103 0 0 135 0 135 80 0 c43 0 101 -5 128 -10z"/>
<path d="M5060 2369 l0 -370 43 3 42 3 3 153 3 153 71 -3 72 -3 89 -152 89
-153 49 0 c27 0 49 3 49 7 0 3 -41 74 -92 157 -50 83 -93 154 -94 157 -2 4 19
20 47 38 87 54 116 173 67 271 -41 80 -137 110 -355 110 l-83 0 0 -371z m312
264 c64 -37 75 -139 23 -201 -30 -35 -87 -52 -179 -52 l-66 0 0 141 0 142 94
-5 c68 -4 103 -10 128 -25z"/>
<path d="M5810 2710 c0 -27 4 -30 40 -36 l40 -7 0 -298 0 -299 -40 -6 c-36 -6
-40 -10 -40 -35 l0 -29 131 0 130 0 -3 27 c-2 21 -11 28 -43 37 l-40 12 0 294
0 295 43 9 c37 8 42 12 42 37 l0 29 -130 0 -130 0 0 -30z"/>
<path d="M6390 2369 l0 -372 148 6 c160 6 220 19 292 65 86 55 130 145 138
285 8 160 -53 284 -171 342 -60 29 -170 45 -314 45 l-93 0 0 -371z m289 280
c128 -27 193 -115 195 -262 1 -105 -17 -166 -65 -221 -52 -59 -102 -78 -226
-84 l-103 -5 0 292 0 291 75 0 c40 0 96 -5 124 -11z"/>
<path d="M8230 2370 l0 -370 203 2 202 3 3 38 3 37 -160 0 -161 0 0 135 0 135
150 0 150 0 0 35 0 35 -150 0 -150 0 0 120 0 120 161 0 160 0 -3 38 -3 37
-202 3 -203 2 0 -370z"/>
<path d="M9725 2727 c-3 -6 -4 -172 -3 -367 l3 -355 203 -3 202 -2 0 40 0 40
-160 0 -160 0 0 135 0 135 150 0 150 0 0 35 0 35 -150 0 -150 0 0 120 0 120
160 0 160 0 0 40 0 40 -200 0 c-152 0 -202 -3 -205 -13z"/>
<path d="M10410 2370 l0 -370 205 0 205 0 0 40 0 40 -160 0 -160 0 0 330 0
330 -45 0 -45 0 0 -370z"/>
<path d="M11060 2370 l0 -370 205 0 205 0 0 40 0 40 -160 0 -160 0 0 330 0
330 -45 0 -45 0 0 -370z"/>
<path d="M11720 2371 l0 -372 43 3 42 3 3 143 3 142 71 0 c186 0 297 85 298
228 0 29 -7 69 -15 90 -39 91 -106 120 -306 129 l-139 6 0 -372z m298 265 c51
-26 74 -71 69 -134 -7 -93 -65 -132 -197 -132 l-80 0 0 146 0 146 88 -4 c56
-3 99 -11 120 -22z"/>
<path d="M12450 2370 l0 -370 45 0 45 0 0 175 0 175 190 0 190 0 0 -175 0
-175 45 0 45 0 0 370 0 370 -45 0 -45 0 0 -160 0 -160 -190 0 -190 0 0 160 0
160 -45 0 -45 0 0 -370z"/>
<path d="M14250 2370 l0 -370 41 0 41 0 -4 305 c-2 168 -3 305 -2 305 1 0 91
-137 199 -305 l198 -306 51 3 51 3 0 365 0 365 -44 3 -43 3 3 -305 c3 -225 1
-302 -7 -293 -6 7 -96 144 -199 305 l-188 292 -48 0 -49 0 0 -370z"/>
<path d="M15140 2370 l0 -370 205 0 205 0 0 40 0 40 -160 0 -160 0 0 135 0
135 150 0 150 0 0 35 0 35 -150 0 -150 0 0 120 0 120 160 0 160 0 0 40 0 40
-205 0 -205 0 0 -370z"/>
</g>
</svg>
